<?xml version="1.0" standalone="no"?>
<!DOCTYPE svg PUBLIC "-//W3C//DTD SVG 20010904//EN"
 "http://www.w3.org/TR/2001/REC-SVG-20010904/DTD/svg10.dtd">
<svg version="1.0" xmlns="http://www.w3.org/2000/svg"
 width="354.000000pt" height="182.000000pt" viewBox="0 0 354.000000 182.000000"
 preserveAspectRatio="xMidYMid meet">

<g transform="translate(0.000000,182.000000) scale(0.100000,-0.100000)"
fill="#000000" stroke="none">
<path d="M0 910 l0 -910 1770 0 1770 0 0 910 0 910 -1770 0 -1770 0 0 -910z
m547 645 c65 -19 76 -33 62 -72 -10 -30 -11 -31 -40 -16 -34 17 -96 20 -111 5
-23 -23 -2 -46 60 -66 118 -40 145 -95 78 -162 -31 -31 -39 -34 -92 -34 -33 0
-76 5 -96 11 -33 8 -38 14 -38 39 0 56 5 59 65 42 44 -12 60 -13 81 -3 38 17
25 33 -47 58 -99 34 -130 84 -94 153 9 17 17 30 18 30 1 0 20 7 42 15 51 18
51 18 112 0z m227 -87 c3 -50 6 -110 6 -134 0 -48 20 -67 55 -54 18 6 20 18
25 141 l5 134 43 3 42 3 0 -141 c0 -78 -5 -150 -10 -161 -35 -65 -205 -67
-238 -1 -13 25 -23 183 -16 247 l7 55 37 0 37 0 7 -92z m373 -32 c18 -65 34
-120 36 -122 2 -3 19 52 37 121 l33 125 48 0 49 0 0 -175 0 -175 -40 0 -40 0
-1 113 -1 112 -26 -109 c-20 -80 -32 -111 -45 -115 -14 -5 -5 -16 48 -55 58
-43 95 -81 120 -125 10 -18 -5 -9 -65 38 -105 83 -159 133 -154 144 2 7 -6 57
-20 112 l-24 100 -1 -107 -1 -108 -35 0 c-19 0 -35 -5 -35 -11 0 -6 6 -9 14
-6 12 5 66 -46 186 -177 25 -27 38 -45 30 -40 -17 9 -333 215 -339 220 -5 4
52 64 61 64 3 0 11 -12 16 -27 8 -21 11 16 11 143 1 94 4 174 8 178 4 4 28 6
53 4 l45 -3 32 -119z m382 87 c50 -185 60 -216 65 -203 3 8 18 65 34 125 l29
110 51 3 52 3 0 -175 0 -176 -40 0 c-49 0 -54 15 -48 136 5 101 -2 93 -31 -38
-22 -96 -23 -98 -51 -98 -32 0 -32 0 -67 150 l-18 75 -3 -112 -3 -113 -39 0
-40 0 0 175 0 175 50 0 c48 0 49 -1 59 -37z m527 -133 c24 -91 44 -168 44
-172 0 -5 -20 -8 -44 -8 -42 0 -44 1 -50 35 -7 34 -8 35 -56 35 -48 0 -49 -1
-56 -35 -6 -34 -8 -35 -50 -35 -24 0 -44 2 -44 5 0 12 81 329 86 337 3 5 33 8
66 6 l61 -3 43 -165z m283 159 c33 -12 61 -52 61 -89 0 -23 -17 -61 -33 -71
-5 -4 0 -16 12 -28 17 -17 21 -33 21 -86 l0 -65 -45 0 -45 0 0 64 c0 61 -1 64
-27 69 -46 9 -53 0 -53 -69 l0 -64 -45 0 -45 0 0 175 0 175 84 0 c45 0 97 -5
115 -11z m510 -476 c29 -241 55 -446 58 -455 4 -16 -4 -18 -60 -18 l-64 0 -7
93 c-11 144 -7 137 -82 137 -35 0 -64 -1 -65 -2 -1 -2 -6 -52 -13 -113 l-11
-110 -63 -3 -62 -3 5 38 c8 57 105 852 105 863 0 6 44 10 103 10 l103 0 53
-437z m331 -18 l0 -455 -60 0 -60 0 0 455 0 455 60 0 60 0 0 -455z m-2043 159
c-9 -9 -28 6 -21 18 4 6 10 6 17 -1 6 -6 8 -13 4 -17z m593 -65 c30 -6 59 -14
63 -19 4 -4 -22 -12 -58 -18 -63 -10 -114 -3 -185 25 -19 8 77 33 105 28 11
-2 45 -9 75 -16z m-806 -3 c29 -12 380 -259 416 -293 17 -16 4 -11 -245 101
-134 60 -177 84 -202 113 -23 28 -29 41 -21 50 6 7 8 20 4 28 -7 19 5 19 48 1z
m1102 -47 c-88 -32 -163 -56 -167 -52 -4 5 -10 18 -13 29 -6 20 1 23 146 51
84 17 162 31 173 31 11 1 -52 -26 -139 -59z m-453 -8 c14 -6 -1 -19 -70 -60
-48 -30 -91 -56 -95 -58 -21 -11 31 83 59 108 34 29 47 31 106 10z m89 -68 l3
-28 24 28 c20 22 33 27 70 27 l46 0 -66 -66 c-37 -37 -71 -64 -77 -60 -6 3
-13 24 -17 46 -4 22 -11 40 -16 40 -5 0 -9 9 -9 20 0 33 38 26 42 -7z m-236
-99 c8 3 41 24 74 46 32 22 61 40 64 40 3 0 -15 -44 -40 -97 -26 -54 -53 -114
-61 -133 l-15 -34 -27 63 c-14 34 -50 91 -79 126 -28 35 -52 66 -52 70 0 3 27
-15 60 -40 36 -27 67 -44 76 -41z m193 30 c20 -88 3 -133 -67 -179 -30 -21
-53 -31 -50 -24 3 8 25 69 49 136 24 68 47 123 50 123 3 0 11 -25 18 -56z
m265 44 c-4 -7 -29 -38 -55 -68 -28 -33 -59 -84 -75 -125 -28 -73 -52 -110
-40 -65 3 14 6 57 6 95 l0 70 83 52 c91 58 91 58 81 41z m-711 -123 c97 -43
175 -81 173 -82 -8 -8 -312 51 -318 61 -4 6 -22 35 -39 63 -25 44 -27 52 -12
45 11 -4 99 -43 196 -87z m967 58 c0 -29 -15 -61 -65 -138 l-65 -100 65 -3 65
-3 0 -34 0 -35 -120 0 -120 0 0 30 c0 19 23 66 69 137 l69 108 -64 3 c-63 3
-64 4 -64 31 0 15 3 31 7 34 3 4 55 7 115 7 l108 0 0 -37z m268 0 l3 -33 -65
0 -66 0 0 -35 0 -35 60 0 c59 0 60 0 60 -29 0 -32 -17 -41 -82 -41 -37 0 -38
-1 -38 -35 l0 -34 63 -3 c62 -3 62 -3 65 -35 l3 -33 -110 0 -111 0 0 168 c0
93 3 172 7 176 4 4 52 5 107 4 l101 -3 3 -32z m-1183 -164 c100 -15 117 -23
79 -36 -44 -15 -156 5 -191 34 l-28 24 30 -5 c17 -3 66 -10 110 -17z m332
-180 c-69 -75 -83 -85 -166 -120 -50 -21 -91 -36 -91 -35 0 2 38 33 84 70 76
62 86 73 110 136 22 56 36 76 74 104 l47 35 9 -54 8 -54 -75 -82z m-374 104
c37 -3 67 -9 67 -13 0 -6 -138 -70 -151 -70 -4 0 -21 27 -38 60 l-31 59 43
-15 c23 -8 72 -18 110 -21z m262 -25 c-11 -39 -27 -66 -56 -94 l-42 -39 7 50
c5 41 14 57 53 97 26 26 48 46 50 44 3 -2 -3 -28 -12 -58z m-130 -94 c-5 -30
-10 -34 -61 -44 -65 -14 -127 -3 -132 22 -2 13 23 30 95 67 l98 49 3 -31 c2
-17 1 -45 -3 -63z m-70 -129 c-34 -27 -65 -32 -65 -10 0 8 15 19 33 24 55 16
64 12 32 -14z"/>
<path d="M1937 1447 c-4 -23 -9 -57 -13 -74 -6 -32 -5 -33 26 -33 29 0 32 2
26 25 -4 14 -9 45 -13 70 -8 60 -19 65 -26 12z"/>
<path d="M2230 1451 c0 -38 2 -41 28 -41 40 0 54 13 50 46 -3 26 -7 29 -40 32
l-38 3 0 -40z"/>
<path d="M2676 1378 c-3 -13 -10 -93 -16 -178 -6 -85 -14 -181 -17 -212 l-6
-58 58 0 58 0 -6 48 c-4 26 -11 108 -17 182 -16 216 -20 240 -36 240 -7 0 -16
-10 -18 -22z"/>
</g>
</svg>
